# xmcd
#
# Track frame offsets: 
#        150
#        20070
#        31452
#        49505
#        64500
#
# Disc length: 1163 seconds
#
# Revision: 4
# Processed by: cddbd v1.5.2PL0 Copyright (c) Steve Scherf et al.
# Submitted via: ExactAudioCopyFreeDBPlugin 1.0
#
DISCID=39048905
DTITLE=Vika and Linda - Gospel Tracks
DYEAR=1994
DGENRE=Folk
TTITLE0=Set On Freedom
TTITLE1=Up Above My Head (I Hear Music In The Air)
TTITLE2=Have A Little Faith In Me
TTITLE3=Saved
TTITLE4=Many Rivers To Cross
EXTD=
EXTT0=
EXTT1=
EXTT2=
EXTT3=
EXTT4=
PLAYORDER=
